# File created by Blade
# Date/Time:  Wed Apr 08 14:55:03 2015
# Frame Rate: 120.000 fps
#------------------------------------------------------
:FULLY-SPECIFIED
:DEGREES
1454
root 4.182810 32.030998 -13.608011 16.631290 -6.158476 -2.314358
Spine -10.059374 0.616362 -6.384638
Head 6.453908 -9.400444 1.110033
LeftShoulder -11.836098 39.880039 14.609657
LeftArm 62.924361 16.604915 -72.328841
LeftForeArm 3.922738 -0.000000 111.513907
LeftHand 6.349419 -0.000000 -1.776849
LeftHandThumb1 -26.253704 0.000000 33.147579
RightShoulder -0.791446 -5.752025 -20.986339
RightArm 19.811491 -28.278157 78.078033
RightForeArm 6.653801 -0.000000 112.478300
RightHand 9.216427 -0.000000 2.355641
RightHandThumb1 -24.326973 -0.000000 -32.862282
LeftUpLeg -35.746545 1.337495 0.692072
LeftLeg 20.910422 -0.000000 -0.000000
LeftFoot -5.325097 8.234581 -20.701445
LeftToeBase -1.595831 -0.000000 0.000000
RightUpLeg -10.293885 -4.636585 6.756456
RightLeg 25.306994 -0.000000 -0.000000
RightFoot -29.837051 -18.928525 23.001429
RightToeBase -6.801761 -0.000000 0.000000
1455
root 4.169402 32.042804 -13.600395 16.398480 -6.088376 -2.226289
Spine -9.941117 0.784141 -6.362379
Head 6.788904 -9.453356 1.053453
LeftShoulder -11.764272 39.964271 14.708992
LeftArm 63.168537 16.776966 -71.696091
LeftForeArm 3.811465 0.000000 111.504445
LeftHand 6.300246 0.000000 -1.841556
LeftHandThumb1 -26.253704 0.000000 33.147579
RightShoulder -0.842998 -5.726958 -20.858063
RightArm 19.800793 -28.327402 78.165236
RightForeArm 6.629193 -0.000000 112.503958
RightHand 9.245825 -0.000000 2.260808
RightHandThumb1 -24.326973 -0.000000 -32.862282
LeftUpLeg -35.345308 1.231095 0.680894
LeftLeg 20.574244 -0.000000 -0.000000
LeftFoot -5.209839 8.237952 -20.777333
LeftToeBase -1.559704 -0.000000 0.000000
RightUpLeg -10.293923 -4.793067 6.758431
RightLeg 24.693517 -0.000000 -0.000000
RightFoot -29.120803 -19.853795 22.627345
RightToeBase -6.620294 -0.000000 0.000000
1456
root 4.156367 32.052267 -13.600324 16.206549 -6.066268 -2.135669
Spine -9.869030 0.981586 -6.347388
Head 7.148764 -9.528977 0.995281
LeftShoulder -11.700962 40.102295 14.802234
LeftArm 63.406798 16.888489 -71.088479
LeftForeArm 3.770849 -0.000000 111.500453
LeftHand 6.260289 -0.000000 -2.145567
LeftHandThumb1 -26.253704 0.000000 33.147579
RightShoulder -0.904253 -5.722847 -20.763652
RightArm 19.842329 -28.406509 78.403201
RightForeArm 6.524902 -0.000000 112.442168
RightHand 9.370645 0.000000 2.100991
RightHandThumb1 -24.326973 -0.000000 -32.862282
LeftUpLeg -34.998485 1.127398 0.671238
LeftLeg 20.249246 -0.000000 -0.000000
LeftFoot -5.127875 8.295229 -20.889493
LeftToeBase -1.399699 -0.000000 0.000000
RightUpLeg -10.357424 -5.075281 6.743916
RightLeg 24.070523 -0.000000 -0.000000
RightFoot -28.052702 -20.749535 22.096152
RightToeBase -6.351057 -0.000000 0.000000
1457
root 4.144827 32.059846 -13.603512 15.990232 -6.123003 -2.003149
Spine -9.774053 1.208779 -6.395634
Head 7.463267 -9.578490 0.975239
LeftShoulder -11.686421 40.211387 14.881311
LeftArm 63.595315 16.980851 -70.473500
LeftForeArm 3.744287 -0.000000 111.471805
LeftHand 6.208643 -0.000000 -2.330975
LeftHandThumb1 -26.253704 0.000000 33.147579
RightShoulder -0.950158 -5.700836 -20.629081
RightArm 19.915868 -28.515843 78.530372
RightForeArm 6.473625 -0.000000 112.420769
RightHand 9.404446 -0.000000 2.042103
RightHandThumb1 -24.326973 -0.000000 -32.862282
LeftUpLeg -34.659960 1.176209 0.563765
LeftLeg 19.981273 -0.000000 -0.000000
LeftFoot -5.001174 8.229511 -21.002855
LeftToeBase -1.400975 -0.000000 0.000000
RightUpLeg -10.389869 -5.439821 6.673925
RightLeg 23.356507 -0.000000 -0.000000
RightFoot -26.447161 -21.929680 21.017472
RightToeBase -5.979111 -0.000000 0.000000
1458
root 4.133506 32.063900 -13.612926 15.802484 -6.198137 -1.854318
Spine -9.706862 1.424464 -6.452950
Head 7.755604 -9.602811 0.943504
LeftShoulder -11.697577 40.322140 14.941715
LeftArm 63.735359 17.040712 -69.929187
LeftForeArm 3.612034 -0.000000 111.450497
LeftHand 6.205979 -0.000000 -2.690552
LeftHandThumb1 -26.253704 0.000000 33.147579
RightShoulder -0.992168 -5.699033 -20.488377
RightArm 20.037806 -28.647654 78.628487
RightForeArm 6.484059 -0.000000 112.409654
RightHand 9.347905 -0.000000 2.140010
RightHandThumb1 -24.326973 -0.000000 -32.862282
LeftUpLeg -34.395659 1.225563 0.445206
LeftLeg 19.788193 -0.000000 -0.000000
LeftFoot -4.926091 8.161534 -21.202783
LeftToeBase -1.329643 -0.000000 0.000000
RightUpLeg -10.457823 -5.990516 6.625230
RightLeg 22.721948 -0.000000 -0.000000
RightFoot -25.171607 -23.325053 19.521612
RightToeBase -3.123646 -0.000000 0.000000
1459
root 4.118636 32.065201 -13.629257 15.648660 -6.300405 -1.742938
Spine -9.673351 1.632952 -6.482397
Head 8.030969 -9.592253 0.933679
LeftShoulder -11.747140 40.475910 15.001177
LeftArm 63.882146 17.081968 -69.429095
LeftForeArm 3.569764 -0.000000 111.426045
LeftHand 6.089351 -0.000000 -2.993146
LeftHandThumb1 -26.253704 0.000000 33.147579
RightShoulder -0.989012 -5.630286 -20.363208
RightArm 20.066167 -28.817184 78.820317
RightForeArm 6.357927 -0.000000 112.400898
RightHand 9.376014 -0.000000 2.066920
RightHandThumb1 -24.326973 -0.000000 -32.862282
LeftUpLeg -34.210597 1.359614 0.339115
LeftLeg 19.679714 -0.000000 -0.000000
LeftFoot -4.921128 8.050201 -21.432726
LeftToeBase -1.106188 -0.000000 0.000000
RightUpLeg -10.552462 -6.510982 6.616667
RightLeg 22.407171 -0.000000 -0.000000
RightFoot -25.541702 -24.042036 19.672190
RightToeBase -2.494907 -0.000000 0.000000
1460
root 4.101712 32.063392 -13.648929 15.478061 -6.450124 -1.644775
Spine -9.616793 1.788035 -6.471054
Head 8.283899 -9.507551 0.881794
LeftShoulder -11.913307 40.591618 14.959581
LeftArm 63.926431 17.093559 -68.966115
LeftForeArm 3.526834 -0.000000 111.425218
LeftHand 5.941714 0.000000 -3.324736
LeftHandThumb1 -26.253704 0.000000 33.147579
RightShoulder -0.922487 -5.567346 -20.278392
RightArm 20.163290 -29.025330 79.034647
RightForeArm 6.204030 -0.000000 112.355555
RightHand 9.337921 -0.000000 2.010041
RightHandThumb1 -24.326973 -0.000000 -32.862282
LeftUpLeg -34.047521 1.558246 0.233919
LeftLeg 19.650952 -0.000000 -0.000000
LeftFoot -4.931239 7.895268 -21.686195
LeftToeBase -1.004169 -0.000000 0.000000
RightUpLeg -10.626934 -7.087036 6.629113
RightLeg 22.257559 -0.000000 -0.000000
RightFoot -25.698500 -24.638683 19.763464
RightToeBase -3.498807 -0.000000 0.000000
1461
root 4.083714 32.058936 -13.671844 15.319202 -6.629987 -1.561029
Spine -9.576396 2.017084 -6.465191
Head 8.528932 -9.461793 0.840881
LeftShoulder -12.033206 40.765474 14.949274
LeftArm 64.025847 17.104845 -68.514065
LeftForeArm 3.429925 0.000000 111.417897
LeftHand 5.873142 -0.000000 -3.594883
LeftHandThumb1 -26.253704 0.000000 33.147579
RightShoulder -0.898761 -5.545023 -20.171420
RightArm 20.258332 -29.236561 79.245284
RightForeArm 6.058215 -0.000000 112.319216
RightHand 9.427366 -0.000000 2.135464
RightHandThumb1 -24.326973 -0.000000 -32.862282
LeftUpLeg -33.926386 1.731646 0.163945
LeftLeg 19.685669 -0.000000 -0.000000
LeftFoot -4.966242 7.792699 -21.924930
LeftToeBase -0.866611 -0.000000 0.000000
RightUpLeg -10.720055 -7.836011 6.692983
RightLeg 22.234821 -0.000000 -0.000000
RightFoot -25.402358 -25.257627 19.025169
RightToeBase -3.592607 -0.000000 0.000000
1462
root 4.065249 32.051927 -13.698353 15.165880 -6.829317 -1.480736
Spine -9.532238 2.280999 -6.460913
Head 8.746470 -9.459175 0.806770
LeftShoulder -12.128814 40.922196 14.947926
LeftArm 64.098414 17.096478 -68.118438
LeftForeArm 3.517778 -0.000000 111.431354
LeftHand 5.691688 -0.000000 -4.066325
LeftHandThumb1 -26.253704 0.000000 33.147579
RightShoulder -0.901075 -5.460724 -20.068734
RightArm 20.240566 -29.459725 79.505762
RightForeArm 5.748967 -0.000000 112.304446
RightHand 9.406665 -0.000000 2.111880
RightHandThumb1 -24.326973 -0.000000 -32.862282
LeftUpLeg -33.850952 1.901842 0.100533
LeftLeg 19.785146 -0.000000 -0.000000
LeftFoot -4.995740 7.722951 -22.112890
LeftToeBase -0.930784 -0.000000 0.000000
RightUpLeg -10.816842 -8.626751 6.758923
RightLeg 22.446369 -0.000000 -0.000000
RightFoot -25.309665 -25.222827 18.592592
RightToeBase -3.756404 -0.000000 0.000000
